<svg width="20" height="20" viewBox="0 0 20 20" fill="none" xmlns="http://www.w3.org/2000/svg">
<path fill-rule="evenodd" clip-rule="evenodd" d="M7.41658 1.66699H12.5583C14.8166 1.66699 16.6416 2.55866 16.6666 4.82533V17.4753C16.6666 17.617 16.6333 17.7587 16.5666 17.8837C16.4583 18.0837 16.2749 18.2337 16.0499 18.3003C15.8333 18.367 15.5916 18.3337 15.3916 18.217L9.99158 15.517L4.58325 18.217C4.45909 18.2828 4.31659 18.3253 4.17492 18.3253C3.70825 18.3253 3.33325 17.942 3.33325 17.4753V4.82533C3.33325 2.55866 5.16659 1.66699 7.41658 1.66699ZM6.84992 8.01699H13.1249C13.4833 8.01699 13.7749 7.72449 13.7749 7.35866C13.7749 6.99199 13.4833 6.70033 13.1249 6.70033H6.84992C6.49159 6.70033 6.19992 6.99199 6.19992 7.35866C6.19992 7.72449 6.49159 8.01699 6.84992 8.01699Z" fill="#223528"/>
</svg>
