<svg width="20" height="21" viewBox="0 0 20 21" fill="none" xmlns="http://www.w3.org/2000/svg">
<path d="M7.6197 17.9662V15.4105C7.61968 14.7629 8.14631 14.2367 8.79861 14.2326H11.1938C11.849 14.2326 12.3801 14.76 12.3801 15.4105V15.4105V17.9588C12.3801 18.5205 12.8366 18.977 13.4024 18.9811H15.0364C15.7996 18.9831 16.5322 18.6834 17.0726 18.1484C17.6129 17.6133 17.9166 16.8867 17.9166 16.1291V8.86933C17.9166 8.25728 17.6433 7.67671 17.1704 7.28404L11.6191 2.87634C10.6487 2.10539 9.26273 2.13029 8.32108 2.93561L2.8891 7.28404C2.39387 7.66514 2.09788 8.24742 2.08325 8.86933L2.08325 16.1216C2.08325 17.7009 3.37274 18.9811 4.9634 18.9811H6.56016C6.83256 18.9831 7.09449 18.877 7.28781 18.6865C7.48113 18.4959 7.58986 18.2367 7.58985 17.9662H7.6197Z" fill="#47A36C"/>
</svg>
