<svg width="20" height="20" viewBox="0 0 20 20" fill="none" xmlns="http://www.w3.org/2000/svg">
<path d="M7.63093 17.3098V14.7542C7.63092 14.1042 8.16085 13.576 8.81743 13.5717H11.2225C11.8822 13.5717 12.417 14.1011 12.417 14.7542V14.7542V17.3178C12.4169 17.8697 12.8618 18.3207 13.4191 18.3337H15.0225C16.6209 18.3337 17.9166 17.0509 17.9166 15.4685V15.4685V8.19852C17.908 7.57602 17.6128 6.99145 17.1149 6.61119L11.6314 2.23808C10.6707 1.47663 9.30509 1.47663 8.34443 2.23808L2.88494 6.61912C2.38513 6.99784 2.08941 7.58338 2.08325 8.20646V15.4685C2.08325 17.0509 3.37898 18.3337 4.97734 18.3337H6.58072C7.15188 18.3337 7.6149 17.8753 7.6149 17.3098V17.3098" stroke="#9BA79E" stroke-width="1.5" stroke-linecap="round" stroke-linejoin="round"/>
</svg>
