<svg width="20" height="20" viewBox="0 0 20 20" fill="none" xmlns="http://www.w3.org/2000/svg">
<path fill-rule="evenodd" clip-rule="evenodd" d="M14.3166 3.67533C14.3166 2.56699 15.2166 1.66699 16.3249 1.66699C17.4333 1.66699 18.3333 2.56699 18.3333 3.67533C18.3333 4.78366 17.4333 5.68366 16.3249 5.68366C15.2166 5.68366 14.3166 4.78366 14.3166 3.67533ZM11.1082 12.2997L13.5165 9.19224L13.4832 9.20891C13.6165 9.02558 13.6415 8.79224 13.5498 8.58391C13.459 8.37558 13.2582 8.23391 13.0423 8.21724C12.8165 8.19224 12.5923 8.29224 12.4582 8.47557L10.4423 11.0839L8.13317 9.26724C7.9915 9.15891 7.82484 9.11641 7.65817 9.13391C7.49234 9.15891 7.34234 9.24974 7.2415 9.38308L4.77567 12.5922L4.72484 12.6672C4.58317 12.9331 4.64984 13.2747 4.89984 13.4589C5.0165 13.5339 5.1415 13.5839 5.28317 13.5839C5.47567 13.5922 5.65817 13.4914 5.77484 13.3339L7.8665 10.6414L10.2415 12.4256L10.3165 12.4747C10.5832 12.6164 10.9165 12.5506 11.1082 12.2997ZM12.8748 3.15058C12.8415 3.35891 12.8248 3.56724 12.8248 3.77558C12.8248 5.65058 14.3415 7.16641 16.2082 7.16641C16.4165 7.16641 16.6165 7.14224 16.8248 7.10891V13.8331C16.8248 16.6589 15.1582 18.3339 12.3248 18.3339H6.16734C3.33317 18.3339 1.6665 16.6589 1.6665 13.8331V7.66724C1.6665 4.83391 3.33317 3.15058 6.16734 3.15058H12.8748Z" fill="#47A36C"/>
</svg>
